name analog
datacolumns 19
datarows 79
range 0.5775 0.6165
endheader
time	ground_force_vx	ground_force_vy	ground_force_vz	ground_force_px	ground_force_py	ground_force_pz	l_ground_force_vx	l_ground_force_vy	l_ground_force_vz	l_ground_force_px	l_ground_force_py	l_ground_force_pz	ground_torque_x	ground_torque_y	ground_torque_z	l_ground_torque_x	l_ground_torque_y	l_ground_torque_z
0.5775	-0.0	-0.0	-0.0	-3.6420605182647705	-6.268557548522949	-614.5913696289062	-0.0	-0.0	-0.0	-0.0	-0.0	-0.0	-0.0	-0.0	-0.0	-0.0	-0.0	-0.0
0.578	-0.0	-0.0	-0.0	-3.420454502105713	-5.377175331115723	-613.120361328125	-0.0	-0.0	-0.0	-0.0	-0.0	-0.0	-0.0	-0.0	-0.0	-0.0	-0.0	-0.0
0.5785	-0.0	-0.0	-0.0	-2.7069945335388184	-5.451574325561523	-610.4743041992188	-0.0	-0.0	-0.0	-0.0	-0.0	-0.0	-0.0	-0.0	-0.0	-0.0	-0.0	-0.0
0.579	-0.0	-0.0	-0.0	-2.634486436843872	-5.229599952697754	-609.8914184570312	-0.0	-0.0	-0.0	-0.0	-0.0	-0.0	-0.0	-0.0	-0.0	-0.0	-0.0	-0.0
0.5795	-0.0	-0.0	-0.0	-3.211578369140625	-4.692811965942383	-608.82470703125	-0.0	-0.0	-0.0	-0.0	-0.0	-0.0	-0.0	-0.0	-0.0	-0.0	-0.0	-0.0
0.58	-0.0	-0.0	-0.0	-3.807091474533081	-4.827508926391602	-608.00390625	-0.0	-0.0	-0.0	-0.0	-0.0	-0.0	-0.0	-0.0	-0.0	-0.0	-0.0	-0.0
0.5805	-0.0	-0.0	-0.0	-3.8792741298675537	-4.531256198883057	-607.04833984375	-0.0	-0.0	-0.0	-0.0	-0.0	-0.0	-0.0	-0.0	-0.0	-0.0	-0.0	-0.0
0.581	-0.0	-0.0	-0.0	-4.431822776794434	-4.516973495483398	-607.5831298828125	-0.0	-0.0	-0.0	-0.0	-0.0	-0.0	-0.0	-0.0	-0.0	-0.0	-0.0	-0.0
0.5815	-0.0	-0.0	-0.0	-5.231323719024658	-4.502853393554688	-609.4190063476562	-0.0	-0.0	-0.0	-0.0	-0.0	-0.0	-0.0	-0.0	-0.0	-0.0	-0.0	-0.0
0.582	-0.0	-0.0	-0.0	-5.962865829467773	-4.067770481109619	-609.3480834960938	-0.0	-0.0	-0.0	-0.0	-0.0	-0.0	-0.0	-0.0	-0.0	-0.0	-0.0	-0.0
0.5825	-0.0	-0.0	-0.0	-6.48400354385376	-3.6401774883270255	-609.17919921875	-0.0	-0.0	-0.0	-0.0	-0.0	-0.0	-0.0	-0.0	-0.0	-0.0	-0.0	-0.0
0.583	-0.0	-0.0	-0.0	-6.507810592651367	-3.0022411346435547	-610.1652221679688	-0.0	-0.0	-0.0	-0.0	-0.0	-0.0	-0.0	-0.0	-0.0	-0.0	-0.0	-0.0
0.5835	-0.0	-0.0	-0.0	-7.348193168640137	-1.7589761018753052	-609.4024658203125	-0.0	-0.0	-0.0	-0.0	-0.0	-0.0	-0.0	-0.0	-0.0	-0.0	-0.0	-0.0
0.584	-0.0	-0.0	-0.0	-7.911709308624268	-0.9193048477172852	-610.8348999023438	-0.0	-0.0	-0.0	-0.0	-0.0	-0.0	-0.0	-0.0	-0.0	-0.0	-0.0	-0.0
0.5845	-0.0	-0.0	-0.0	-8.35790729522705	-1.186550498008728	-609.9417724609375	-0.0	-0.0	-0.0	-0.0	-0.0	-0.0	-0.0	-0.0	-0.0	-0.0	-0.0	-0.0
0.585	-0.0	-0.0	-0.0	-8.826030731201172	-1.8023005723953247	-609.2444458007812	-0.0	-0.0	-0.0	-0.0	-0.0	-0.0	-0.0	-0.0	-0.0	-0.0	-0.0	-0.0
0.5855	-0.0	-0.0	-0.0	-9.456314086914062	-2.351261854171753	-612.8466796875	-0.0	-0.0	-0.0	-0.0	-0.0	-0.0	-0.0	-0.0	-0.0	-0.0	-0.0	-0.0
0.586	-0.0	-0.0	-0.0	-8.61935806274414	-2.304429054260254	-613.7721557617188	-0.0	-0.0	-0.0	-0.0	-0.0	-0.0	-0.0	-0.0	-0.0	-0.0	-0.0	-0.0
0.5865	-0.0	-0.0	-0.0	-7.92598819732666	-3.462350606918335	-617.4395751953125	-0.0	-0.0	-0.0	-0.0	-0.0	-0.0	-0.0	-0.0	-0.0	-0.0	-0.0	-0.0
0.587	-0.0	-0.0	-0.0	-8.138994216918945	-4.264596939086914	-616.4613647460938	-0.0	-0.0	-0.0	-0.0	-0.0	-0.0	-0.0	-0.0	-0.0	-0.0	-0.0	-0.0
0.5875	-0.0	-0.0	-0.0	-7.534535884857178	-5.121249198913574	-618.8548583984375	-0.0	-0.0	-0.0	-0.0	-0.0	-0.0	-0.0	-0.0	-0.0	-0.0	-0.0	-0.0
0.588	-0.0	-0.0	-0.0	-6.985543251037598	-5.766376972198486	-618.3107299804688	-0.0	-0.0	-0.0	-0.0	-0.0	-0.0	-0.0	-0.0	-0.0	-0.0	-0.0	-0.0
0.5885	-0.0	-0.0	-0.0	-5.701194763183594	-6.4878363609313965	-617.8184814453125	-0.0	-0.0	-0.0	-0.0	-0.0	-0.0	-0.0	-0.0	-0.0	-0.0	-0.0	-0.0
0.589	-0.0	-0.0	-0.0	-5.374593257904053	-6.439332008361816	-618.0311279296875	-0.0	-0.0	-0.0	-0.0	-0.0	-0.0	-0.0	-0.0	-0.0	-0.0	-0.0	-0.0
0.5895	-0.0	-0.0	-0.0	-4.384691715240479	-6.234705448150635	-616.3519287109375	-0.0	-0.0	-0.0	-0.0	-0.0	-0.0	-0.0	-0.0	-0.0	-0.0	-0.0	-0.0
0.59	-0.0	-0.0	-0.0	-4.05448579788208	-6.364086627960205	-615.097412109375	-0.0	-0.0	-0.0	-0.0	-0.0	-0.0	-0.0	-0.0	-0.0	-0.0	-0.0	-0.0
0.5905	-0.0	-0.0	-0.0	-4.246020793914795	-6.252398014068604	-613.526123046875	-0.0	-0.0	-0.0	-0.0	-0.0	-0.0	-0.0	-0.0	-0.0	-0.0	-0.0	-0.0
0.591	-0.0	-0.0	-0.0	-4.662112712860107	-6.480125427246094	-613.0028686523438	-0.0	-0.0	-0.0	-0.0	-0.0	-0.0	-0.0	-0.0	-0.0	-0.0	-0.0	-0.0
0.5915	-0.0	-0.0	-0.0	-5.316098690032959	-6.275627136230469	-609.4843139648438	-0.0	-0.0	-0.0	-0.0	-0.0	-0.0	-0.0	-0.0	-0.0	-0.0	-0.0	-0.0
0.592	-0.0	-0.0	-0.0	-5.381594181060791	-6.160416126251221	-607.5107421875	-0.0	-0.0	-0.0	-0.0	-0.0	-0.0	-0.0	-0.0	-0.0	-0.0	-0.0	-0.0
0.5925	-0.0	-0.0	-0.0	-6.719096183776856	-6.404343128204346	-603.937744140625	-0.0	-0.0	-0.0	-0.0	-0.0	-0.0	-0.0	-0.0	-0.0	-0.0	-0.0	-0.0
0.593	-0.0	-0.0	-0.0	-8.066152572631836	-6.226138591766357	-602.9224853515625	-0.0	-0.0	-0.0	-0.0	-0.0	-0.0	-0.0	-0.0	-0.0	-0.0	-0.0	-0.0
0.5935	-0.0	-0.0	-0.0	-8.820199012756348	-6.352806091308594	-600.8102416992188	-0.0	-0.0	-0.0	-0.0	-0.0	-0.0	-0.0	-0.0	-0.0	-0.0	-0.0	-0.0
0.594	-0.0	-0.0	-0.0	-9.58419132232666	-5.87074089050293	-601.46142578125	-0.0	-0.0	-0.0	-0.0	-0.0	-0.0	-0.0	-0.0	-0.0	-0.0	-0.0	-0.0
0.5945	-0.0	-0.0	-0.0	-9.800944328308104	-5.691524028778076	-600.00439453125	-0.0	-0.0	-0.0	-0.0	-0.0	-0.0	-0.0	-0.0	-0.0	-0.0	-0.0	-0.0
0.595	-0.0	-0.0	-0.0	-10.055377960205078	-5.118679046630859	-600.4564208984375	-0.0	-0.0	-0.0	-0.0	-0.0	-0.0	-0.0	-0.0	-0.0	-0.0	-0.0	-0.0
0.5955	-0.0	-0.0	-0.0	-10.475790977478027	-4.367389678955078	-601.5164794921875	-0.0	-0.0	-0.0	-0.0	-0.0	-0.0	-0.0	-0.0	-0.0	-0.0	-0.0	-0.0
0.596	-0.0	-0.0	-0.0	-10.781790733337402	-4.27825927734375	-600.5062866210938	-0.0	-0.0	-0.0	-0.0	-0.0	-0.0	-0.0	-0.0	-0.0	-0.0	-0.0	-0.0
0.5965	-0.0	-0.0	-0.0	-9.966360092163086	-3.883946418762207	-599.6957397460938	-0.0	-0.0	-0.0	-0.0	-0.0	-0.0	-0.0	-0.0	-0.0	-0.0	-0.0	-0.0
0.597	-0.0	-0.0	-0.0	-9.213786125183104	-4.215557098388672	-600.3065185546875	-0.0	-0.0	-0.0	-0.0	-0.0	-0.0	-0.0	-0.0	-0.0	-0.0	-0.0	-0.0
0.5975	-0.0	-0.0	-0.0	-7.877341270446777	-4.354921817779541	-601.7197875976562	-0.0	-0.0	-0.0	-0.0	-0.0	-0.0	-0.0	-0.0	-0.0	-0.0	-0.0	-0.0
0.598	-0.0	-0.0	-0.0	-5.989543437957764	-4.330105781555176	-600.50439453125	-0.0	-0.0	-0.0	-0.0	-0.0	-0.0	-0.0	-0.0	-0.0	-0.0	-0.0	-0.0
0.5985	-0.0	-0.0	-0.0	-4.319253921508789	-4.20402717590332	-602.6820678710938	-0.0	-0.0	-0.0	-0.0	-0.0	-0.0	-0.0	-0.0	-0.0	-0.0	-0.0	-0.0
0.599	-0.0	-0.0	-0.0	-2.8331539630889893	-3.568251609802246	-602.3059692382812	-0.0	-0.0	-0.0	-0.0	-0.0	-0.0	-0.0	-0.0	-0.0	-0.0	-0.0	-0.0
0.5995	-0.0	-0.0	-0.0	-1.686039686203003	-2.4956512451171875	-604.303955078125	-0.0	-0.0	-0.0	-0.0	-0.0	-0.0	-0.0	-0.0	-0.0	-0.0	-0.0	-0.0
0.6	-0.0	-0.0	-0.0	-0.9531782865524292	-1.5640314817428589	-602.3168334960938	-0.0	-0.0	-0.0	-0.0	-0.0	-0.0	-0.0	-0.0	-0.0	-0.0	-0.0	-0.0
0.6005	-0.0	-0.0	-0.0	-0.6529752016067505	-1.5922163724899292	-602.9262084960938	-0.0	-0.0	-0.0	-0.0	-0.0	-0.0	-0.0	-0.0	-0.0	-0.0	-0.0	-0.0
0.601	-0.0	-0.0	-0.0	0.1663183867931366	-0.8792122602462769	-603.2490844726562	-0.0	-0.0	-0.0	-0.0	-0.0	-0.0	-0.0	-0.0	-0.0	-0.0	-0.0	-0.0
0.6015	-0.0	-0.0	-0.0	0.7618032097816467	-1.1416786909103394	-603.937744140625	-0.0	-0.0	-0.0	-0.0	-0.0	-0.0	-0.0	-0.0	-0.0	-0.0	-0.0	-0.0
0.602	-0.0	-0.0	-0.0	1.1837162971496582	-1.7998639345169067	-603.937744140625	-0.0	-0.0	-0.0	-0.0	-0.0	-0.0	-0.0	-0.0	-0.0	-0.0	-0.0	-0.0
0.6025	-0.0	-0.0	-0.0	1.106328010559082	-0.9565879106521606	-601.1595458984375	-0.0	-0.0	-0.0	-0.0	-0.0	-0.0	-0.0	-0.0	-0.0	-0.0	-0.0	-0.0
0.603	-0.0	-0.0	-0.0	1.5403008460998535	-1.217947483062744	-598.8992309570312	-0.0	-0.0	-0.0	-0.0	-0.0	-0.0	-0.0	-0.0	-0.0	-0.0	-0.0	-0.0
0.6035	-0.0	-0.0	-0.0	1.5638643503189087	-1.918981671333313	-597.9804077148438	-0.0	-0.0	-0.0	-0.0	-0.0	-0.0	-0.0	-0.0	-0.0	-0.0	-0.0	-0.0
0.604	-0.0	-0.0	-0.0	1.795975685119629	-1.728742241859436	-595.3682861328125	-0.0	-0.0	-0.0	-0.0	-0.0	-0.0	-0.0	-0.0	-0.0	-0.0	-0.0	-0.0
0.6045	-0.0	-0.0	-0.0	0.9930081963539124	-2.274988412857056	-591.88330078125	-0.0	-0.0	-0.0	-0.0	-0.0	-0.0	-0.0	-0.0	-0.0	-0.0	-0.0	-0.0
0.605	-0.0	-0.0	-0.0	0.2250347137451172	-2.3715920448303223	-589.1041259765625	-0.0	-0.0	-0.0	-0.0	-0.0	-0.0	-0.0	-0.0	-0.0	-0.0	-0.0	-0.0
0.6055	-0.0	-0.0	-0.0	-1.2686742544174194	-1.6112090349197388	-587.6455688476562	-0.0	-0.0	-0.0	-0.0	-0.0	-0.0	-0.0	-0.0	-0.0	-0.0	-0.0	-0.0
0.606	-0.0	-0.0	-0.0	-1.5911321640014648	-2.107651710510254	-585.9712524414062	-0.0	-0.0	-0.0	-0.0	-0.0	-0.0	-0.0	-0.0	-0.0	-0.0	-0.0	-0.0
0.6065	-0.0	-0.0	-0.0	-1.205676555633545	-2.095897912979126	-583.0546264648438	-0.0	-0.0	-0.0	-0.0	-0.0	-0.0	-0.0	-0.0	-0.0	-0.0	-0.0	-0.0
0.607	-0.0	-0.0	-0.0	-1.203298568725586	-2.5733797550201416	-582.085693359375	-0.0	-0.0	-0.0	-0.0	-0.0	-0.0	-0.0	-0.0	-0.0	-0.0	-0.0	-0.0
0.6075	-0.0	-0.0	-0.0	-0.5903574228286743	-2.017678022384644	-580.0565795898438	-0.0	-0.0	-0.0	-0.0	-0.0	-0.0	-0.0	-0.0	-0.0	-0.0	-0.0	-0.0
0.608	-0.0	-0.0	-0.0	-0.913320779800415	-2.372553825378418	-581.6873779296875	-0.0	-0.0	-0.0	-0.0	-0.0	-0.0	-0.0	-0.0	-0.0	-0.0	-0.0	-0.0
0.6085	-0.0	-0.0	-0.0	-0.7691157460212708	-1.593097686767578	-583.5869750976562	-0.0	-0.0	-0.0	-0.0	-0.0	-0.0	-0.0	-0.0	-0.0	-0.0	-0.0	-0.0
0.609	-0.0	-0.0	-0.0	-0.0	-0.7685947418212891	-586.8076782226562	-0.0	-0.0	-0.0	-0.0	-0.0	-0.0	-0.0	-0.0	-0.0	-0.0	-0.0	-0.0
0.6095	-0.0	-0.0	-0.0	0.0556507855653762	-0.5681428909301758	-588.35302734375	-0.0	-0.0	-0.0	-0.0	-0.0	-0.0	-0.0	-0.0	-0.0	-0.0	-0.0	-0.0
0.61	-0.0	-0.0	-0.0	0.6910096406936646	-0.1223685443401336	-593.3861694335938	-0.0	-0.0	-0.0	-0.0	-0.0	-0.0	-0.0	-0.0	-0.0	-0.0	-0.0	-0.0
0.6105	-0.0	-0.0	-0.0	1.817310452461243	-0.3234511315822601	-600.3621826171875	-0.0	-0.0	-0.0	-0.0	-0.0	-0.0	-0.0	-0.0	-0.0	-0.0	-0.0	-0.0
0.611	-0.0	-0.0	-0.0	2.474447011947632	-0.1548345983028412	-606.3231201171875	-0.0	-0.0	-0.0	-0.0	-0.0	-0.0	-0.0	-0.0	-0.0	-0.0	-0.0	-0.0
0.6115	-0.0	-0.0	-0.0	3.011316299438477	-0.056398257613182	-608.9686889648438	-0.0	-0.0	-0.0	-0.0	-0.0	-0.0	-0.0	-0.0	-0.0	-0.0	-0.0	-0.0
0.612	-0.0	-0.0	-0.0	2.911303758621216	0.9934661984443665	-612.810302734375	-0.0	-0.0	-0.0	-0.0	-0.0	-0.0	-0.0	-0.0	-0.0	-0.0	-0.0	-0.0
0.6125	-0.0	-0.0	-0.0	1.9626312255859373	2.228260040283203	-616.1705932617188	-0.0	-0.0	-0.0	-0.0	-0.0	-0.0	-0.0	-0.0	-0.0	-0.0	-0.0	-0.0
0.613	-0.0	-0.0	-0.0	1.070526123046875	2.9767234325408936	-615.6351928710938	-0.0	-0.0	-0.0	-0.0	-0.0	-0.0	-0.0	-0.0	-0.0	-0.0	-0.0	-0.0
0.6135	-0.0	-0.0	-0.0	0.7922157645225525	3.53320837020874	-614.8016967773438	-0.0	-0.0	-0.0	-0.0	-0.0	-0.0	-0.0	-0.0	-0.0	-0.0	-0.0	-0.0
0.614	-0.0	-0.0	-0.0	0.2250728607177734	3.93236780166626	-613.0361328125	-0.0	-0.0	-0.0	-0.0	-0.0	-0.0	-0.0	-0.0	-0.0	-0.0	-0.0	-0.0
0.6145	-0.0	-0.0	-0.0	-0.462679922580719	4.834190368652344	-612.7432861328125	-0.0	-0.0	-0.0	-0.0	-0.0	-0.0	-0.0	-0.0	-0.0	-0.0	-0.0	-0.0
0.615	-0.0	-0.0	-0.0	-2.035943031311035	5.227189064025879	-609.2769775390625	-0.0	-0.0	-0.0	-0.0	-0.0	-0.0	-0.0	-0.0	-0.0	-0.0	-0.0	-0.0
0.6155	-0.0	-0.0	-0.0	-1.7368868589401243	4.713449001312256	-607.4280395507812	-0.0	-0.0	-0.0	-0.0	-0.0	-0.0	-0.0	-0.0	-0.0	-0.0	-0.0	-0.0
0.616	-0.0	-0.0	-0.0	-2.508310079574585	4.854667663574219	-608.822998046875	-0.0	-0.0	-0.0	-0.0	-0.0	-0.0	-0.0	-0.0	-0.0	-0.0	-0.0	-0.0
0.6165	-0.0	-0.0	-0.0	-2.9336037635803223	4.620574474334717	-607.1163330078125	-0.0	-0.0	-0.0	-0.0	-0.0	-0.0	-0.0	-0.0	-0.0	-0.0	-0.0	-0.0
